<mxfile host="app.diagrams.net" modified="2021-06-11T19:14:09.882Z" agent="5.0 (Macintosh; Intel Mac OS X 10_15_6) AppleWebKit/537.36 (KHTML, like Gecko) Chrome/91.0.4472.77 Safari/537.36" etag="BMLlvNubB7tSveDNlUdQ" version="14.7.6" type="github">
  <diagram id="J55A9xIWlywrn6KyfSAC" name="Page-1">
    <mxGraphModel dx="1298" dy="800" grid="1" gridSize="10" guides="1" tooltips="1" connect="1" arrows="1" fold="1" page="1" pageScale="1" pageWidth="827" pageHeight="1169" math="0" shadow="0">
      <root>
        <mxCell id="0" />
        <mxCell id="1" parent="0" />
        <mxCell id="35DElgQ_2itcZMPM_rD--44" value="formio Backend GUI" style="whiteSpace=wrap;html=1;" vertex="1" parent="1">
          <mxGeometry x="150" y="40" width="205" height="180" as="geometry" />
        </mxCell>
        <mxCell id="35DElgQ_2itcZMPM_rD--17" value="formio &quot;lightweight&quot; frontend" style="rounded=0;whiteSpace=wrap;html=1;" vertex="1" parent="1">
          <mxGeometry x="145" y="270" width="210" height="430" as="geometry" />
        </mxCell>
        <mxCell id="35DElgQ_2itcZMPM_rD--10" style="edgeStyle=orthogonalEdgeStyle;rounded=0;orthogonalLoop=1;jettySize=auto;html=1;" edge="1" parent="1" source="35DElgQ_2itcZMPM_rD--2" target="35DElgQ_2itcZMPM_rD--9">
          <mxGeometry relative="1" as="geometry" />
        </mxCell>
        <mxCell id="35DElgQ_2itcZMPM_rD--2" value="Entwickler" style="shape=umlActor;verticalLabelPosition=bottom;verticalAlign=top;html=1;outlineConnect=0;" vertex="1" parent="1">
          <mxGeometry x="50" y="80" width="40" height="70" as="geometry" />
        </mxCell>
        <mxCell id="35DElgQ_2itcZMPM_rD--9" value="Login Form, Permission, Resource Handling&lt;br&gt;erfassen" style="ellipse;whiteSpace=wrap;html=1;" vertex="1" parent="1">
          <mxGeometry x="200" y="40" width="120" height="80" as="geometry" />
        </mxCell>
        <mxCell id="35DElgQ_2itcZMPM_rD--20" style="edgeStyle=orthogonalEdgeStyle;rounded=0;orthogonalLoop=1;jettySize=auto;html=1;" edge="1" parent="1" source="35DElgQ_2itcZMPM_rD--12" target="35DElgQ_2itcZMPM_rD--13">
          <mxGeometry relative="1" as="geometry" />
        </mxCell>
        <mxCell id="35DElgQ_2itcZMPM_rD--21" style="edgeStyle=orthogonalEdgeStyle;rounded=0;orthogonalLoop=1;jettySize=auto;html=1;entryX=0;entryY=0.5;entryDx=0;entryDy=0;" edge="1" parent="1" source="35DElgQ_2itcZMPM_rD--12" target="35DElgQ_2itcZMPM_rD--15">
          <mxGeometry relative="1" as="geometry" />
        </mxCell>
        <mxCell id="35DElgQ_2itcZMPM_rD--31" style="edgeStyle=orthogonalEdgeStyle;rounded=0;orthogonalLoop=1;jettySize=auto;html=1;entryX=0;entryY=0.5;entryDx=0;entryDy=0;" edge="1" parent="1" source="35DElgQ_2itcZMPM_rD--12" target="35DElgQ_2itcZMPM_rD--23">
          <mxGeometry relative="1" as="geometry" />
        </mxCell>
        <mxCell id="35DElgQ_2itcZMPM_rD--32" style="edgeStyle=orthogonalEdgeStyle;rounded=0;orthogonalLoop=1;jettySize=auto;html=1;entryX=0;entryY=0.5;entryDx=0;entryDy=0;" edge="1" parent="1" source="35DElgQ_2itcZMPM_rD--12" target="35DElgQ_2itcZMPM_rD--27">
          <mxGeometry relative="1" as="geometry">
            <mxPoint x="140" y="720" as="targetPoint" />
          </mxGeometry>
        </mxCell>
        <mxCell id="35DElgQ_2itcZMPM_rD--12" value="Client" style="shape=umlActor;verticalLabelPosition=bottom;verticalAlign=top;html=1;outlineConnect=0;" vertex="1" parent="1">
          <mxGeometry x="50" y="330" width="40" height="70" as="geometry" />
        </mxCell>
        <mxCell id="35DElgQ_2itcZMPM_rD--13" value="Login" style="ellipse;whiteSpace=wrap;html=1;" vertex="1" parent="1">
          <mxGeometry x="200" y="280" width="120" height="70" as="geometry" />
        </mxCell>
        <mxCell id="35DElgQ_2itcZMPM_rD--15" value="List submissions" style="ellipse;whiteSpace=wrap;html=1;" vertex="1" parent="1">
          <mxGeometry x="200" y="380" width="120" height="80" as="geometry" />
        </mxCell>
        <mxCell id="35DElgQ_2itcZMPM_rD--23" value="Download submissions" style="ellipse;whiteSpace=wrap;html=1;" vertex="1" parent="1">
          <mxGeometry x="190" y="505" width="120" height="80" as="geometry" />
        </mxCell>
        <mxCell id="35DElgQ_2itcZMPM_rD--27" value="Browse assets" style="ellipse;whiteSpace=wrap;html=1;" vertex="1" parent="1">
          <mxGeometry x="180" y="600" width="120" height="80" as="geometry" />
        </mxCell>
        <mxCell id="35DElgQ_2itcZMPM_rD--41" value="" style="endArrow=none;dashed=1;html=1;dashPattern=1 3;strokeWidth=2;entryX=0;entryY=0.5;entryDx=0;entryDy=0;" edge="1" parent="1" source="35DElgQ_2itcZMPM_rD--27" target="35DElgQ_2itcZMPM_rD--45">
          <mxGeometry width="50" height="50" relative="1" as="geometry">
            <mxPoint x="350" y="690" as="sourcePoint" />
            <mxPoint x="400" y="640" as="targetPoint" />
          </mxGeometry>
        </mxCell>
        <mxCell id="35DElgQ_2itcZMPM_rD--45" value="&quot;open&quot; s3 links proxy:&lt;br&gt;CMS&lt;br&gt;Webhooks&lt;br&gt;?" style="whiteSpace=wrap;html=1;aspect=fixed;" vertex="1" parent="1">
          <mxGeometry x="414" y="585" width="115" height="115" as="geometry" />
        </mxCell>
        <mxCell id="35DElgQ_2itcZMPM_rD--49" value="" style="endArrow=none;dashed=1;html=1;dashPattern=1 3;strokeWidth=2;" edge="1" parent="1" target="35DElgQ_2itcZMPM_rD--17">
          <mxGeometry width="50" height="50" relative="1" as="geometry">
            <mxPoint x="252" y="250" as="sourcePoint" />
            <mxPoint x="440" y="320" as="targetPoint" />
          </mxGeometry>
        </mxCell>
        <mxCell id="35DElgQ_2itcZMPM_rD--50" value="" style="endArrow=none;dashed=1;html=1;dashPattern=1 3;strokeWidth=2;entryX=0;entryY=0.5;entryDx=0;entryDy=0;entryPerimeter=0;" edge="1" parent="1" target="35DElgQ_2itcZMPM_rD--52">
          <mxGeometry width="50" height="50" relative="1" as="geometry">
            <mxPoint x="250" y="250" as="sourcePoint" />
            <mxPoint x="390" y="250" as="targetPoint" />
          </mxGeometry>
        </mxCell>
        <mxCell id="35DElgQ_2itcZMPM_rD--52" value="formio GUI&lt;br&gt;3rd party assets" style="whiteSpace=wrap;html=1;aspect=fixed;" vertex="1" parent="1">
          <mxGeometry x="400" y="170" width="110" height="110" as="geometry" />
        </mxCell>
      </root>
    </mxGraphModel>
  </diagram>
</mxfile>
